<?xml version="1.0" encoding="utf-8" standalone="no"?>
<!DOCTYPE svg PUBLIC "-//W3C//DTD SVG 1.1//EN"
  "http://www.w3.org/Graphics/SVG/1.1/DTD/svg11.dtd">
<!-- Created with matplotlib (http://matplotlib.org/) -->
<svg height="504pt" version="1.1" viewBox="0 0 612 504" width="612pt" xmlns="http://www.w3.org/2000/svg" xmlns:xlink="http://www.w3.org/1999/xlink">
 <defs>
  <style type="text/css">
*{stroke-linecap:butt;stroke-linejoin:round;}
  </style>
 </defs>
 <g id="figure_1">
  <g id="patch_1">
   <path d="M 0 504 
L 612 504 
L 612 0 
L 0 0 
z
" style="fill:#ffffff;"/>
  </g>
  <g id="axes_1">
   <g id="patch_2">
    <path d="M 76.5 441 
L 550.8 441 
L 550.8 60.48 
L 76.5 60.48 
z
" style="fill:#ffffff;"/>
   </g>
   <g id="matplotlib.axis_1">
    <g id="xtick_1">
     <g id="line2d_1">
      <defs>
       <path d="M 0 0 
L 0 3.5 
" id="m6386c311f4" style="stroke:#000000;stroke-width:0.8;"/>
      </defs>
      <g>
       <use style="stroke:#000000;stroke-width:0.8;" x="86.081818" xlink:href="#m6386c311f4" y="441"/>
      </g>
     </g>
     <g id="text_1">
      <!-- 307.5 -->
      <defs>
       <path d="M 40.578125 39.3125 
Q 47.65625 37.796875 51.625 33 
Q 55.609375 28.21875 55.609375 21.1875 
Q 55.609375 10.40625 48.1875 4.484375 
Q 40.765625 -1.421875 27.09375 -1.421875 
Q 22.515625 -1.421875 17.65625 -0.515625 
Q 12.796875 0.390625 7.625 2.203125 
L 7.625 11.71875 
Q 11.71875 9.328125 16.59375 8.109375 
Q 21.484375 6.890625 26.8125 6.890625 
Q 36.078125 6.890625 40.9375 10.546875 
Q 45.796875 14.203125 45.796875 21.1875 
Q 45.796875 27.640625 41.28125 31.265625 
Q 36.765625 34.90625 28.71875 34.90625 
L 20.21875 34.90625 
L 20.21875 43.015625 
L 29.109375 43.015625 
Q 36.375 43.015625 40.234375 45.921875 
Q 44.09375 48.828125 44.09375 54.296875 
Q 44.09375 59.90625 40.109375 62.90625 
Q 36.140625 65.921875 28.71875 65.921875 
Q 24.65625 65.921875 20.015625 65.03125 
Q 15.375 64.15625 9.8125 62.3125 
L 9.8125 71.09375 
Q 15.4375 72.65625 20.34375 73.4375 
Q 25.25 74.21875 29.59375 74.21875 
Q 40.828125 74.21875 47.359375 69.109375 
Q 53.90625 64.015625 53.90625 55.328125 
Q 53.90625 49.265625 50.4375 45.09375 
Q 46.96875 40.921875 40.578125 39.3125 
z
" id="DejaVuSans-33"/>
       <path d="M 31.78125 66.40625 
Q 24.171875 66.40625 20.328125 58.90625 
Q 16.5 51.421875 16.5 36.375 
Q 16.5 21.390625 20.328125 13.890625 
Q 24.171875 6.390625 31.78125 6.390625 
Q 39.453125 6.390625 43.28125 13.890625 
Q 47.125 21.390625 47.125 36.375 
Q 47.125 51.421875 43.28125 58.90625 
Q 39.453125 66.40625 31.78125 66.40625 
z
M 31.78125 74.21875 
Q 44.046875 74.21875 50.515625 64.515625 
Q 56.984375 54.828125 56.984375 36.375 
Q 56.984375 17.96875 50.515625 8.265625 
Q 44.046875 -1.421875 31.78125 -1.421875 
Q 19.53125 -1.421875 13.0625 8.265625 
Q 6.59375 17.96875 6.59375 36.375 
Q 6.59375 54.828125 13.0625 64.515625 
Q 19.53125 74.21875 31.78125 74.21875 
z
" id="DejaVuSans-30"/>
       <path d="M 8.203125 72.90625 
L 55.078125 72.90625 
L 55.078125 68.703125 
L 28.609375 0 
L 18.3125 0 
L 43.21875 64.59375 
L 8.203125 64.59375 
z
" id="DejaVuSans-37"/>
       <path d="M 10.6875 12.40625 
L 21 12.40625 
L 21 0 
L 10.6875 0 
z
" id="DejaVuSans-2e"/>
       <path d="M 10.796875 72.90625 
L 49.515625 72.90625 
L 49.515625 64.59375 
L 19.828125 64.59375 
L 19.828125 46.734375 
Q 21.96875 47.46875 24.109375 47.828125 
Q 26.265625 48.1875 28.421875 48.1875 
Q 40.625 48.1875 47.75 41.5 
Q 54.890625 34.8125 54.890625 23.390625 
Q 54.890625 11.625 47.5625 5.09375 
Q 40.234375 -1.421875 26.90625 -1.421875 
Q 22.3125 -1.421875 17.546875 -0.640625 
Q 12.796875 0.140625 7.71875 1.703125 
L 7.71875 11.625 
Q 12.109375 9.234375 16.796875 8.0625 
Q 21.484375 6.890625 26.703125 6.890625 
Q 35.15625 6.890625 40.078125 11.328125 
Q 45.015625 15.765625 45.015625 23.390625 
Q 45.015625 31 40.078125 35.4375 
Q 35.15625 39.890625 26.703125 39.890625 
Q 22.75 39.890625 18.8125 39.015625 
Q 14.890625 38.140625 10.796875 36.28125 
z
" id="DejaVuSans-35"/>
      </defs>
      <g transform="translate(71.767756 455.598437)scale(0.1 -0.1)">
       <use xlink:href="#DejaVuSans-33"/>
       <use x="63.623047" xlink:href="#DejaVuSans-30"/>
       <use x="127.246094" xlink:href="#DejaVuSans-37"/>
       <use x="190.869141" xlink:href="#DejaVuSans-2e"/>
       <use x="222.65625" xlink:href="#DejaVuSans-35"/>
      </g>
     </g>
    </g>
    <g id="xtick_2">
     <g id="line2d_2">
      <g>
       <use style="stroke:#000000;stroke-width:0.8;" x="145.968182" xlink:href="#m6386c311f4" y="441"/>
      </g>
     </g>
     <g id="text_2">
      <!-- 310.0 -->
      <defs>
       <path d="M 12.40625 8.296875 
L 28.515625 8.296875 
L 28.515625 63.921875 
L 10.984375 60.40625 
L 10.984375 69.390625 
L 28.421875 72.90625 
L 38.28125 72.90625 
L 38.28125 8.296875 
L 54.390625 8.296875 
L 54.390625 0 
L 12.40625 0 
z
" id="DejaVuSans-31"/>
      </defs>
      <g transform="translate(131.654119 455.598437)scale(0.1 -0.1)">
       <use xlink:href="#DejaVuSans-33"/>
       <use x="63.623047" xlink:href="#DejaVuSans-31"/>
       <use x="127.246094" xlink:href="#DejaVuSans-30"/>
       <use x="190.869141" xlink:href="#DejaVuSans-2e"/>
       <use x="222.65625" xlink:href="#DejaVuSans-30"/>
      </g>
     </g>
    </g>
    <g id="xtick_3">
     <g id="line2d_3">
      <g>
       <use style="stroke:#000000;stroke-width:0.8;" x="205.854545" xlink:href="#m6386c311f4" y="441"/>
      </g>
     </g>
     <g id="text_3">
      <!-- 312.5 -->
      <defs>
       <path d="M 19.1875 8.296875 
L 53.609375 8.296875 
L 53.609375 0 
L 7.328125 0 
L 7.328125 8.296875 
Q 12.9375 14.109375 22.625 23.890625 
Q 32.328125 33.6875 34.8125 36.53125 
Q 39.546875 41.84375 41.421875 45.53125 
Q 43.3125 49.21875 43.3125 52.78125 
Q 43.3125 58.59375 39.234375 62.25 
Q 35.15625 65.921875 28.609375 65.921875 
Q 23.96875 65.921875 18.8125 64.3125 
Q 13.671875 62.703125 7.8125 59.421875 
L 7.8125 69.390625 
Q 13.765625 71.78125 18.9375 73 
Q 24.125 74.21875 28.421875 74.21875 
Q 39.75 74.21875 46.484375 68.546875 
Q 53.21875 62.890625 53.21875 53.421875 
Q 53.21875 48.921875 51.53125 44.890625 
Q 49.859375 40.875 45.40625 35.40625 
Q 44.1875 33.984375 37.640625 27.21875 
Q 31.109375 20.453125 19.1875 8.296875 
z
" id="DejaVuSans-32"/>
      </defs>
      <g transform="translate(191.540483 455.598437)scale(0.1 -0.1)">
       <use xlink:href="#DejaVuSans-33"/>
       <use x="63.623047" xlink:href="#DejaVuSans-31"/>
       <use x="127.246094" xlink:href="#DejaVuSans-32"/>
       <use x="190.869141" xlink:href="#DejaVuSans-2e"/>
       <use x="222.65625" xlink:href="#DejaVuSans-35"/>
      </g>
     </g>
    </g>
    <g id="xtick_4">
     <g id="line2d_4">
      <g>
       <use style="stroke:#000000;stroke-width:0.8;" x="265.740909" xlink:href="#m6386c311f4" y="441"/>
      </g>
     </g>
     <g id="text_4">
      <!-- 315.0 -->
      <g transform="translate(251.426847 455.598437)scale(0.1 -0.1)">
       <use xlink:href="#DejaVuSans-33"/>
       <use x="63.623047" xlink:href="#DejaVuSans-31"/>
       <use x="127.246094" xlink:href="#DejaVuSans-35"/>
       <use x="190.869141" xlink:href="#DejaVuSans-2e"/>
       <use x="222.65625" xlink:href="#DejaVuSans-30"/>
      </g>
     </g>
    </g>
    <g id="xtick_5">
     <g id="line2d_5">
      <g>
       <use style="stroke:#000000;stroke-width:0.8;" x="325.627273" xlink:href="#m6386c311f4" y="441"/>
      </g>
     </g>
     <g id="text_5">
      <!-- 317.5 -->
      <g transform="translate(311.31321 455.598437)scale(0.1 -0.1)">
       <use xlink:href="#DejaVuSans-33"/>
       <use x="63.623047" xlink:href="#DejaVuSans-31"/>
       <use x="127.246094" xlink:href="#DejaVuSans-37"/>
       <use x="190.869141" xlink:href="#DejaVuSans-2e"/>
       <use x="222.65625" xlink:href="#DejaVuSans-35"/>
      </g>
     </g>
    </g>
    <g id="xtick_6">
     <g id="line2d_6">
      <g>
       <use style="stroke:#000000;stroke-width:0.8;" x="385.513636" xlink:href="#m6386c311f4" y="441"/>
      </g>
     </g>
     <g id="text_6">
      <!-- 320.0 -->
      <g transform="translate(371.199574 455.598437)scale(0.1 -0.1)">
       <use xlink:href="#DejaVuSans-33"/>
       <use x="63.623047" xlink:href="#DejaVuSans-32"/>
       <use x="127.246094" xlink:href="#DejaVuSans-30"/>
       <use x="190.869141" xlink:href="#DejaVuSans-2e"/>
       <use x="222.65625" xlink:href="#DejaVuSans-30"/>
      </g>
     </g>
    </g>
    <g id="xtick_7">
     <g id="line2d_7">
      <g>
       <use style="stroke:#000000;stroke-width:0.8;" x="445.4" xlink:href="#m6386c311f4" y="441"/>
      </g>
     </g>
     <g id="text_7">
      <!-- 322.5 -->
      <g transform="translate(431.085938 455.598437)scale(0.1 -0.1)">
       <use xlink:href="#DejaVuSans-33"/>
       <use x="63.623047" xlink:href="#DejaVuSans-32"/>
       <use x="127.246094" xlink:href="#DejaVuSans-32"/>
       <use x="190.869141" xlink:href="#DejaVuSans-2e"/>
       <use x="222.65625" xlink:href="#DejaVuSans-35"/>
      </g>
     </g>
    </g>
    <g id="xtick_8">
     <g id="line2d_8">
      <g>
       <use style="stroke:#000000;stroke-width:0.8;" x="505.286364" xlink:href="#m6386c311f4" y="441"/>
      </g>
     </g>
     <g id="text_8">
      <!-- 325.0 -->
      <g transform="translate(490.972301 455.598437)scale(0.1 -0.1)">
       <use xlink:href="#DejaVuSans-33"/>
       <use x="63.623047" xlink:href="#DejaVuSans-32"/>
       <use x="127.246094" xlink:href="#DejaVuSans-35"/>
       <use x="190.869141" xlink:href="#DejaVuSans-2e"/>
       <use x="222.65625" xlink:href="#DejaVuSans-30"/>
      </g>
     </g>
    </g>
   </g>
   <g id="matplotlib.axis_2">
    <g id="ytick_1">
     <g id="line2d_9">
      <defs>
       <path d="M 0 0 
L -3.5 0 
" id="mc6fd516a33" style="stroke:#000000;stroke-width:0.8;"/>
      </defs>
      <g>
       <use style="stroke:#000000;stroke-width:0.8;" x="76.5" xlink:href="#mc6fd516a33" y="409.29"/>
      </g>
     </g>
     <g id="text_9">
      <!-- 0 -->
      <g transform="translate(63.1375 413.089219)scale(0.1 -0.1)">
       <use xlink:href="#DejaVuSans-30"/>
      </g>
     </g>
    </g>
    <g id="ytick_2">
     <g id="line2d_10">
      <g>
       <use style="stroke:#000000;stroke-width:0.8;" x="76.5" xlink:href="#mc6fd516a33" y="345.87"/>
      </g>
     </g>
     <g id="text_10">
      <!-- 20 -->
      <g transform="translate(56.775 349.669219)scale(0.1 -0.1)">
       <use xlink:href="#DejaVuSans-32"/>
       <use x="63.623047" xlink:href="#DejaVuSans-30"/>
      </g>
     </g>
    </g>
    <g id="ytick_3">
     <g id="line2d_11">
      <g>
       <use style="stroke:#000000;stroke-width:0.8;" x="76.5" xlink:href="#mc6fd516a33" y="282.45"/>
      </g>
     </g>
     <g id="text_11">
      <!-- 40 -->
      <defs>
       <path d="M 37.796875 64.3125 
L 12.890625 25.390625 
L 37.796875 25.390625 
z
M 35.203125 72.90625 
L 47.609375 72.90625 
L 47.609375 25.390625 
L 58.015625 25.390625 
L 58.015625 17.1875 
L 47.609375 17.1875 
L 47.609375 0 
L 37.796875 0 
L 37.796875 17.1875 
L 4.890625 17.1875 
L 4.890625 26.703125 
z
" id="DejaVuSans-34"/>
      </defs>
      <g transform="translate(56.775 286.249219)scale(0.1 -0.1)">
       <use xlink:href="#DejaVuSans-34"/>
       <use x="63.623047" xlink:href="#DejaVuSans-30"/>
      </g>
     </g>
    </g>
    <g id="ytick_4">
     <g id="line2d_12">
      <g>
       <use style="stroke:#000000;stroke-width:0.8;" x="76.5" xlink:href="#mc6fd516a33" y="219.03"/>
      </g>
     </g>
     <g id="text_12">
      <!-- 60 -->
      <defs>
       <path d="M 33.015625 40.375 
Q 26.375 40.375 22.484375 35.828125 
Q 18.609375 31.296875 18.609375 23.390625 
Q 18.609375 15.53125 22.484375 10.953125 
Q 26.375 6.390625 33.015625 6.390625 
Q 39.65625 6.390625 43.53125 10.953125 
Q 47.40625 15.53125 47.40625 23.390625 
Q 47.40625 31.296875 43.53125 35.828125 
Q 39.65625 40.375 33.015625 40.375 
z
M 52.59375 71.296875 
L 52.59375 62.3125 
Q 48.875 64.0625 45.09375 64.984375 
Q 41.3125 65.921875 37.59375 65.921875 
Q 27.828125 65.921875 22.671875 59.328125 
Q 17.53125 52.734375 16.796875 39.40625 
Q 19.671875 43.65625 24.015625 45.921875 
Q 28.375 48.1875 33.59375 48.1875 
Q 44.578125 48.1875 50.953125 41.515625 
Q 57.328125 34.859375 57.328125 23.390625 
Q 57.328125 12.15625 50.6875 5.359375 
Q 44.046875 -1.421875 33.015625 -1.421875 
Q 20.359375 -1.421875 13.671875 8.265625 
Q 6.984375 17.96875 6.984375 36.375 
Q 6.984375 53.65625 15.1875 63.9375 
Q 23.390625 74.21875 37.203125 74.21875 
Q 40.921875 74.21875 44.703125 73.484375 
Q 48.484375 72.75 52.59375 71.296875 
z
" id="DejaVuSans-36"/>
      </defs>
      <g transform="translate(56.775 222.829219)scale(0.1 -0.1)">
       <use xlink:href="#DejaVuSans-36"/>
       <use x="63.623047" xlink:href="#DejaVuSans-30"/>
      </g>
     </g>
    </g>
    <g id="ytick_5">
     <g id="line2d_13">
      <g>
       <use style="stroke:#000000;stroke-width:0.8;" x="76.5" xlink:href="#mc6fd516a33" y="155.61"/>
      </g>
     </g>
     <g id="text_13">
      <!-- 80 -->
      <defs>
       <path d="M 31.78125 34.625 
Q 24.75 34.625 20.71875 30.859375 
Q 16.703125 27.09375 16.703125 20.515625 
Q 16.703125 13.921875 20.71875 10.15625 
Q 24.75 6.390625 31.78125 6.390625 
Q 38.8125 6.390625 42.859375 10.171875 
Q 46.921875 13.96875 46.921875 20.515625 
Q 46.921875 27.09375 42.890625 30.859375 
Q 38.875 34.625 31.78125 34.625 
z
M 21.921875 38.8125 
Q 15.578125 40.375 12.03125 44.71875 
Q 8.5 49.078125 8.5 55.328125 
Q 8.5 64.0625 14.71875 69.140625 
Q 20.953125 74.21875 31.78125 74.21875 
Q 42.671875 74.21875 48.875 69.140625 
Q 55.078125 64.0625 55.078125 55.328125 
Q 55.078125 49.078125 51.53125 44.71875 
Q 48 40.375 41.703125 38.8125 
Q 48.828125 37.15625 52.796875 32.3125 
Q 56.78125 27.484375 56.78125 20.515625 
Q 56.78125 9.90625 50.3125 4.234375 
Q 43.84375 -1.421875 31.78125 -1.421875 
Q 19.734375 -1.421875 13.25 4.234375 
Q 6.78125 9.90625 6.78125 20.515625 
Q 6.78125 27.484375 10.78125 32.3125 
Q 14.796875 37.15625 21.921875 38.8125 
z
M 18.3125 54.390625 
Q 18.3125 48.734375 21.84375 45.5625 
Q 25.390625 42.390625 31.78125 42.390625 
Q 38.140625 42.390625 41.71875 45.5625 
Q 45.3125 48.734375 45.3125 54.390625 
Q 45.3125 60.0625 41.71875 63.234375 
Q 38.140625 66.40625 31.78125 66.40625 
Q 25.390625 66.40625 21.84375 63.234375 
Q 18.3125 60.0625 18.3125 54.390625 
z
" id="DejaVuSans-38"/>
      </defs>
      <g transform="translate(56.775 159.409219)scale(0.1 -0.1)">
       <use xlink:href="#DejaVuSans-38"/>
       <use x="63.623047" xlink:href="#DejaVuSans-30"/>
      </g>
     </g>
    </g>
    <g id="ytick_6">
     <g id="line2d_14">
      <g>
       <use style="stroke:#000000;stroke-width:0.8;" x="76.5" xlink:href="#mc6fd516a33" y="92.19"/>
      </g>
     </g>
     <g id="text_14">
      <!-- 100 -->
      <g transform="translate(50.4125 95.989219)scale(0.1 -0.1)">
       <use xlink:href="#DejaVuSans-31"/>
       <use x="63.623047" xlink:href="#DejaVuSans-30"/>
       <use x="127.246094" xlink:href="#DejaVuSans-30"/>
      </g>
     </g>
    </g>
   </g>
   <g id="LineCollection_1">
    <path clip-path="url(#pf9853a7a63)" d="M 145.968182 108.045 
L 145.968182 76.335 
" style="fill:none;stroke:#000066;stroke-width:0.5;"/>
    <path clip-path="url(#pf9853a7a63)" d="M 193.877273 108.045 
L 193.877273 76.335 
" style="fill:none;stroke:#000066;stroke-width:0.5;"/>
    <path clip-path="url(#pf9853a7a63)" d="M 241.786364 108.045 
L 241.786364 76.335 
" style="fill:none;stroke:#000066;stroke-width:0.5;"/>
    <path clip-path="url(#pf9853a7a63)" d="M 289.695455 174.3189 
L 289.695455 142.6089 
" style="fill:none;stroke:#000066;stroke-width:0.5;"/>
    <path clip-path="url(#pf9853a7a63)" d="M 337.604545 259.6188 
L 337.604545 227.9088 
" style="fill:none;stroke:#000066;stroke-width:0.5;"/>
    <path clip-path="url(#pf9853a7a63)" d="M 385.513636 358.2369 
L 385.513636 326.5269 
" style="fill:none;stroke:#000066;stroke-width:0.5;"/>
    <path clip-path="url(#pf9853a7a63)" d="M 433.422727 421.974 
L 433.422727 390.264 
" style="fill:none;stroke:#000066;stroke-width:0.5;"/>
    <path clip-path="url(#pf9853a7a63)" d="M 481.331818 425.145 
L 481.331818 393.435 
" style="fill:none;stroke:#000066;stroke-width:0.5;"/>
   </g>
   <g id="line2d_15">
    <path clip-path="url(#pf9853a7a63)" d="M 98.059091 87.65078 
L 102.414463 87.681596 
L 106.769835 87.71678 
L 111.125207 87.756948 
L 115.480579 87.802805 
L 119.83595 87.855155 
L 124.191322 87.914914 
L 128.546694 87.983129 
L 132.902066 88.06099 
L 137.257438 88.149857 
L 141.61281 88.251277 
L 145.968182 88.367014 
L 150.323554 88.499077 
L 154.678926 88.649752 
L 159.034298 88.821641 
L 163.389669 89.017702 
L 167.745041 89.241298 
L 172.100413 89.49625 
L 176.455785 89.786893 
L 180.811157 90.118143 
L 185.166529 90.495572 
L 189.521901 90.925483 
L 193.877273 91.414998 
L 198.232645 91.972157 
L 202.588017 92.606014 
L 206.943388 93.326751 
L 211.29876 94.145785 
L 215.654132 95.075895 
L 220.009504 96.131331 
L 224.364876 97.327935 
L 228.720248 98.683249 
L 233.07562 100.216603 
L 237.430992 101.949188 
L 241.786364 103.904088 
L 246.141736 106.106269 
L 250.497107 108.582499 
L 254.852479 111.36119 
L 259.207851 114.472137 
L 263.563223 117.946128 
L 267.918595 121.814414 
L 272.273967 126.108008 
L 276.629339 130.856807 
L 280.984711 136.08852 
L 285.340083 141.827421 
L 289.695455 148.092934 
L 294.050826 154.898113 
L 298.406198 162.248068 
L 302.76157 170.138439 
L 307.116942 178.554032 
L 311.472314 187.467758 
L 315.827686 196.84 
L 320.183058 206.618533 
L 324.53843 216.739109 
L 328.893802 227.126732 
L 333.249174 237.697617 
L 337.604545 248.36175 
L 341.959917 259.025883 
L 346.315289 269.596768 
L 350.670661 279.984391 
L 355.026033 290.104967 
L 359.381405 299.8835 
L 363.736777 309.255742 
L 368.092149 318.169468 
L 372.447521 326.585061 
L 376.802893 334.475432 
L 381.158264 341.825387 
L 385.513636 348.630566 
L 389.869008 354.896079 
L 394.22438 360.63498 
L 398.579752 365.866693 
L 402.935124 370.615492 
L 407.290496 374.909086 
L 411.645868 378.777372 
L 416.00124 382.251363 
L 420.356612 385.36231 
L 424.711983 388.141001 
L 429.067355 390.617231 
L 433.422727 392.819412 
L 437.778099 394.774312 
L 442.133471 396.506897 
L 446.488843 398.040251 
L 450.844215 399.395565 
L 455.199587 400.592169 
L 459.554959 401.647605 
L 463.910331 402.577715 
L 468.265702 403.396749 
L 472.621074 404.117486 
L 476.976446 404.751343 
L 481.331818 405.308502 
L 485.68719 405.798017 
L 490.042562 406.227928 
L 494.397934 406.605357 
L 498.753306 406.936607 
L 503.108678 407.22725 
L 507.46405 407.482202 
L 511.819421 407.705798 
L 516.174793 407.901859 
L 520.530165 408.073748 
L 524.885537 408.224423 
L 529.240909 408.356486 
" style="fill:none;stroke:#000066;stroke-linecap:square;stroke-width:1.5;"/>
   </g>
   <g id="line2d_16">
    <defs>
     <path d="M 4 0 
L -4 -0 
" id="meb6902e418" style="stroke:#000066;"/>
    </defs>
    <g clip-path="url(#pf9853a7a63)">
     <use style="fill:#000066;stroke:#000066;" x="145.968182" xlink:href="#meb6902e418" y="108.045"/>
     <use style="fill:#000066;stroke:#000066;" x="193.877273" xlink:href="#meb6902e418" y="108.045"/>
     <use style="fill:#000066;stroke:#000066;" x="241.786364" xlink:href="#meb6902e418" y="108.045"/>
     <use style="fill:#000066;stroke:#000066;" x="289.695455" xlink:href="#meb6902e418" y="174.3189"/>
     <use style="fill:#000066;stroke:#000066;" x="337.604545" xlink:href="#meb6902e418" y="259.6188"/>
     <use style="fill:#000066;stroke:#000066;" x="385.513636" xlink:href="#meb6902e418" y="358.2369"/>
     <use style="fill:#000066;stroke:#000066;" x="433.422727" xlink:href="#meb6902e418" y="421.974"/>
     <use style="fill:#000066;stroke:#000066;" x="481.331818" xlink:href="#meb6902e418" y="425.145"/>
    </g>
   </g>
   <g id="line2d_17">
    <g clip-path="url(#pf9853a7a63)">
     <use style="fill:#000066;stroke:#000066;" x="145.968182" xlink:href="#meb6902e418" y="76.335"/>
     <use style="fill:#000066;stroke:#000066;" x="193.877273" xlink:href="#meb6902e418" y="76.335"/>
     <use style="fill:#000066;stroke:#000066;" x="241.786364" xlink:href="#meb6902e418" y="76.335"/>
     <use style="fill:#000066;stroke:#000066;" x="289.695455" xlink:href="#meb6902e418" y="142.6089"/>
     <use style="fill:#000066;stroke:#000066;" x="337.604545" xlink:href="#meb6902e418" y="227.9088"/>
     <use style="fill:#000066;stroke:#000066;" x="385.513636" xlink:href="#meb6902e418" y="326.5269"/>
     <use style="fill:#000066;stroke:#000066;" x="433.422727" xlink:href="#meb6902e418" y="390.264"/>
     <use style="fill:#000066;stroke:#000066;" x="481.331818" xlink:href="#meb6902e418" y="393.435"/>
    </g>
   </g>
   <g id="line2d_18">
    <defs>
     <path d="M 0 4 
C 1.060812 4 2.078319 3.578535 2.828427 2.828427 
C 3.578535 2.078319 4 1.060812 4 0 
C 4 -1.060812 3.578535 -2.078319 2.828427 -2.828427 
C 2.078319 -3.578535 1.060812 -4 0 -4 
C -1.060812 -4 -2.078319 -3.578535 -2.828427 -2.828427 
C -3.578535 -2.078319 -4 -1.060812 -4 0 
C -4 1.060812 -3.578535 2.078319 -2.828427 2.828427 
C -2.078319 3.578535 -1.060812 4 0 4 
z
" id="mbf29b8dde7" style="stroke:#000066;stroke-opacity:0.5;stroke-width:1.5;"/>
    </defs>
    <g clip-path="url(#pf9853a7a63)">
     <use style="fill:#000066;fill-opacity:0.5;stroke:#000066;stroke-opacity:0.5;stroke-width:1.5;" x="145.968182" xlink:href="#mbf29b8dde7" y="92.19"/>
     <use style="fill:#000066;fill-opacity:0.5;stroke:#000066;stroke-opacity:0.5;stroke-width:1.5;" x="193.877273" xlink:href="#mbf29b8dde7" y="92.19"/>
     <use style="fill:#000066;fill-opacity:0.5;stroke:#000066;stroke-opacity:0.5;stroke-width:1.5;" x="241.786364" xlink:href="#mbf29b8dde7" y="92.19"/>
     <use style="fill:#000066;fill-opacity:0.5;stroke:#000066;stroke-opacity:0.5;stroke-width:1.5;" x="289.695455" xlink:href="#mbf29b8dde7" y="158.4639"/>
     <use style="fill:#000066;fill-opacity:0.5;stroke:#000066;stroke-opacity:0.5;stroke-width:1.5;" x="337.604545" xlink:href="#mbf29b8dde7" y="243.7638"/>
     <use style="fill:#000066;fill-opacity:0.5;stroke:#000066;stroke-opacity:0.5;stroke-width:1.5;" x="385.513636" xlink:href="#mbf29b8dde7" y="342.3819"/>
     <use style="fill:#000066;fill-opacity:0.5;stroke:#000066;stroke-opacity:0.5;stroke-width:1.5;" x="433.422727" xlink:href="#mbf29b8dde7" y="406.119"/>
     <use style="fill:#000066;fill-opacity:0.5;stroke:#000066;stroke-opacity:0.5;stroke-width:1.5;" x="481.331818" xlink:href="#mbf29b8dde7" y="409.29"/>
    </g>
   </g>
   <g id="line2d_19">
    <defs>
     <path d="M 0 4 
C 1.060812 4 2.078319 3.578535 2.828427 2.828427 
C 3.578535 2.078319 4 1.060812 4 0 
C 4 -1.060812 3.578535 -2.078319 2.828427 -2.828427 
C 2.078319 -3.578535 1.060812 -4 0 -4 
C -1.060812 -4 -2.078319 -3.578535 -2.828427 -2.828427 
C -3.578535 -2.078319 -4 -1.060812 -4 0 
C -4 1.060812 -3.578535 2.078319 -2.828427 2.828427 
C -2.078319 3.578535 -1.060812 4 0 4 
z
" id="macdcfb21c2" style="stroke:#000066;stroke-width:1.5;"/>
    </defs>
    <g clip-path="url(#pf9853a7a63)">
     <use style="fill-opacity:0;stroke:#000066;stroke-width:1.5;" x="145.968182" xlink:href="#macdcfb21c2" y="92.19"/>
     <use style="fill-opacity:0;stroke:#000066;stroke-width:1.5;" x="193.877273" xlink:href="#macdcfb21c2" y="92.19"/>
     <use style="fill-opacity:0;stroke:#000066;stroke-width:1.5;" x="241.786364" xlink:href="#macdcfb21c2" y="92.19"/>
     <use style="fill-opacity:0;stroke:#000066;stroke-width:1.5;" x="289.695455" xlink:href="#macdcfb21c2" y="158.4639"/>
     <use style="fill-opacity:0;stroke:#000066;stroke-width:1.5;" x="337.604545" xlink:href="#macdcfb21c2" y="243.7638"/>
     <use style="fill-opacity:0;stroke:#000066;stroke-width:1.5;" x="385.513636" xlink:href="#macdcfb21c2" y="342.3819"/>
     <use style="fill-opacity:0;stroke:#000066;stroke-width:1.5;" x="433.422727" xlink:href="#macdcfb21c2" y="406.119"/>
     <use style="fill-opacity:0;stroke:#000066;stroke-width:1.5;" x="481.331818" xlink:href="#macdcfb21c2" y="409.29"/>
    </g>
   </g>
   <g id="line2d_20"/>
   <g id="patch_3">
    <path d="M 76.5 441 
L 76.5 60.48 
" style="fill:none;stroke:#000000;stroke-linecap:square;stroke-linejoin:miter;stroke-width:0.8;"/>
   </g>
   <g id="patch_4">
    <path d="M 550.8 441 
L 550.8 60.48 
" style="fill:none;stroke:#000000;stroke-linecap:square;stroke-linejoin:miter;stroke-width:0.8;"/>
   </g>
   <g id="patch_5">
    <path d="M 76.5 441 
L 550.8 441 
" style="fill:none;stroke:#000000;stroke-linecap:square;stroke-linejoin:miter;stroke-width:0.8;"/>
   </g>
   <g id="patch_6">
    <path d="M 76.5 60.48 
L 550.8 60.48 
" style="fill:none;stroke:#000000;stroke-linecap:square;stroke-linejoin:miter;stroke-width:0.8;"/>
   </g>
  </g>
 </g>
 <defs>
  <clipPath id="pf9853a7a63">
   <rect height="380.52" width="474.3" x="76.5" y="60.48"/>
  </clipPath>
 </defs>
</svg>
