<?xml version="1.0" encoding="utf-8" standalone="no"?>
<!DOCTYPE svg PUBLIC "-//W3C//DTD SVG 1.1//EN"
  "http://www.w3.org/Graphics/SVG/1.1/DTD/svg11.dtd">
<!-- Created with matplotlib (http://matplotlib.org/) -->
<svg height="504pt" version="1.1" viewBox="0 0 612 504" width="612pt" xmlns="http://www.w3.org/2000/svg" xmlns:xlink="http://www.w3.org/1999/xlink">
 <defs>
  <style type="text/css">
*{stroke-linecap:butt;stroke-linejoin:round;}
  </style>
 </defs>
 <g id="figure_1">
  <g id="patch_1">
   <path d="M 0 504 
L 612 504 
L 612 0 
L 0 0 
z
" style="fill:#ffffff;"/>
  </g>
  <g id="axes_1">
   <g id="patch_2">
    <path d="M 76.5 441 
L 550.8 441 
L 550.8 60.48 
L 76.5 60.48 
z
" style="fill:#ffffff;"/>
   </g>
   <g id="matplotlib.axis_1">
    <g id="xtick_1">
     <g id="line2d_1">
      <defs>
       <path d="M 0 0 
L 0 3.5 
" id="m21e6cd2ed4" style="stroke:#000000;stroke-width:0.8;"/>
      </defs>
      <g>
       <use style="stroke:#000000;stroke-width:0.8;" x="159.656494" xlink:href="#m21e6cd2ed4" y="441"/>
      </g>
     </g>
     <g id="text_1">
      <!-- 290 -->
      <defs>
       <path d="M 19.1875 8.296875 
L 53.609375 8.296875 
L 53.609375 0 
L 7.328125 0 
L 7.328125 8.296875 
Q 12.9375 14.109375 22.625 23.890625 
Q 32.328125 33.6875 34.8125 36.53125 
Q 39.546875 41.84375 41.421875 45.53125 
Q 43.3125 49.21875 43.3125 52.78125 
Q 43.3125 58.59375 39.234375 62.25 
Q 35.15625 65.921875 28.609375 65.921875 
Q 23.96875 65.921875 18.8125 64.3125 
Q 13.671875 62.703125 7.8125 59.421875 
L 7.8125 69.390625 
Q 13.765625 71.78125 18.9375 73 
Q 24.125 74.21875 28.421875 74.21875 
Q 39.75 74.21875 46.484375 68.546875 
Q 53.21875 62.890625 53.21875 53.421875 
Q 53.21875 48.921875 51.53125 44.890625 
Q 49.859375 40.875 45.40625 35.40625 
Q 44.1875 33.984375 37.640625 27.21875 
Q 31.109375 20.453125 19.1875 8.296875 
z
" id="DejaVuSans-32"/>
       <path d="M 10.984375 1.515625 
L 10.984375 10.5 
Q 14.703125 8.734375 18.5 7.8125 
Q 22.3125 6.890625 25.984375 6.890625 
Q 35.75 6.890625 40.890625 13.453125 
Q 46.046875 20.015625 46.78125 33.40625 
Q 43.953125 29.203125 39.59375 26.953125 
Q 35.25 24.703125 29.984375 24.703125 
Q 19.046875 24.703125 12.671875 31.3125 
Q 6.296875 37.9375 6.296875 49.421875 
Q 6.296875 60.640625 12.9375 67.421875 
Q 19.578125 74.21875 30.609375 74.21875 
Q 43.265625 74.21875 49.921875 64.515625 
Q 56.59375 54.828125 56.59375 36.375 
Q 56.59375 19.140625 48.40625 8.859375 
Q 40.234375 -1.421875 26.421875 -1.421875 
Q 22.703125 -1.421875 18.890625 -0.6875 
Q 15.09375 0.046875 10.984375 1.515625 
z
M 30.609375 32.421875 
Q 37.25 32.421875 41.125 36.953125 
Q 45.015625 41.5 45.015625 49.421875 
Q 45.015625 57.28125 41.125 61.84375 
Q 37.25 66.40625 30.609375 66.40625 
Q 23.96875 66.40625 20.09375 61.84375 
Q 16.21875 57.28125 16.21875 49.421875 
Q 16.21875 41.5 20.09375 36.953125 
Q 23.96875 32.421875 30.609375 32.421875 
z
" id="DejaVuSans-39"/>
       <path d="M 31.78125 66.40625 
Q 24.171875 66.40625 20.328125 58.90625 
Q 16.5 51.421875 16.5 36.375 
Q 16.5 21.390625 20.328125 13.890625 
Q 24.171875 6.390625 31.78125 6.390625 
Q 39.453125 6.390625 43.28125 13.890625 
Q 47.125 21.390625 47.125 36.375 
Q 47.125 51.421875 43.28125 58.90625 
Q 39.453125 66.40625 31.78125 66.40625 
z
M 31.78125 74.21875 
Q 44.046875 74.21875 50.515625 64.515625 
Q 56.984375 54.828125 56.984375 36.375 
Q 56.984375 17.96875 50.515625 8.265625 
Q 44.046875 -1.421875 31.78125 -1.421875 
Q 19.53125 -1.421875 13.0625 8.265625 
Q 6.59375 17.96875 6.59375 36.375 
Q 6.59375 54.828125 13.0625 64.515625 
Q 19.53125 74.21875 31.78125 74.21875 
z
" id="DejaVuSans-30"/>
      </defs>
      <g transform="translate(150.112744 455.598437)scale(0.1 -0.1)">
       <use xlink:href="#DejaVuSans-32"/>
       <use x="63.623047" xlink:href="#DejaVuSans-39"/>
       <use x="127.246094" xlink:href="#DejaVuSans-30"/>
      </g>
     </g>
    </g>
    <g id="xtick_2">
     <g id="line2d_2">
      <g>
       <use style="stroke:#000000;stroke-width:0.8;" x="262.318831" xlink:href="#m21e6cd2ed4" y="441"/>
      </g>
     </g>
     <g id="text_2">
      <!-- 300 -->
      <defs>
       <path d="M 40.578125 39.3125 
Q 47.65625 37.796875 51.625 33 
Q 55.609375 28.21875 55.609375 21.1875 
Q 55.609375 10.40625 48.1875 4.484375 
Q 40.765625 -1.421875 27.09375 -1.421875 
Q 22.515625 -1.421875 17.65625 -0.515625 
Q 12.796875 0.390625 7.625 2.203125 
L 7.625 11.71875 
Q 11.71875 9.328125 16.59375 8.109375 
Q 21.484375 6.890625 26.8125 6.890625 
Q 36.078125 6.890625 40.9375 10.546875 
Q 45.796875 14.203125 45.796875 21.1875 
Q 45.796875 27.640625 41.28125 31.265625 
Q 36.765625 34.90625 28.71875 34.90625 
L 20.21875 34.90625 
L 20.21875 43.015625 
L 29.109375 43.015625 
Q 36.375 43.015625 40.234375 45.921875 
Q 44.09375 48.828125 44.09375 54.296875 
Q 44.09375 59.90625 40.109375 62.90625 
Q 36.140625 65.921875 28.71875 65.921875 
Q 24.65625 65.921875 20.015625 65.03125 
Q 15.375 64.15625 9.8125 62.3125 
L 9.8125 71.09375 
Q 15.4375 72.65625 20.34375 73.4375 
Q 25.25 74.21875 29.59375 74.21875 
Q 40.828125 74.21875 47.359375 69.109375 
Q 53.90625 64.015625 53.90625 55.328125 
Q 53.90625 49.265625 50.4375 45.09375 
Q 46.96875 40.921875 40.578125 39.3125 
z
" id="DejaVuSans-33"/>
      </defs>
      <g transform="translate(252.775081 455.598437)scale(0.1 -0.1)">
       <use xlink:href="#DejaVuSans-33"/>
       <use x="63.623047" xlink:href="#DejaVuSans-30"/>
       <use x="127.246094" xlink:href="#DejaVuSans-30"/>
      </g>
     </g>
    </g>
    <g id="xtick_3">
     <g id="line2d_3">
      <g>
       <use style="stroke:#000000;stroke-width:0.8;" x="364.981169" xlink:href="#m21e6cd2ed4" y="441"/>
      </g>
     </g>
     <g id="text_3">
      <!-- 310 -->
      <defs>
       <path d="M 12.40625 8.296875 
L 28.515625 8.296875 
L 28.515625 63.921875 
L 10.984375 60.40625 
L 10.984375 69.390625 
L 28.421875 72.90625 
L 38.28125 72.90625 
L 38.28125 8.296875 
L 54.390625 8.296875 
L 54.390625 0 
L 12.40625 0 
z
" id="DejaVuSans-31"/>
      </defs>
      <g transform="translate(355.437419 455.598437)scale(0.1 -0.1)">
       <use xlink:href="#DejaVuSans-33"/>
       <use x="63.623047" xlink:href="#DejaVuSans-31"/>
       <use x="127.246094" xlink:href="#DejaVuSans-30"/>
      </g>
     </g>
    </g>
    <g id="xtick_4">
     <g id="line2d_4">
      <g>
       <use style="stroke:#000000;stroke-width:0.8;" x="467.643506" xlink:href="#m21e6cd2ed4" y="441"/>
      </g>
     </g>
     <g id="text_4">
      <!-- 320 -->
      <g transform="translate(458.099756 455.598437)scale(0.1 -0.1)">
       <use xlink:href="#DejaVuSans-33"/>
       <use x="63.623047" xlink:href="#DejaVuSans-32"/>
       <use x="127.246094" xlink:href="#DejaVuSans-30"/>
      </g>
     </g>
    </g>
   </g>
   <g id="matplotlib.axis_2">
    <g id="ytick_1">
     <g id="line2d_5">
      <defs>
       <path d="M 0 0 
L -3.5 0 
" id="mcd54c47bb5" style="stroke:#000000;stroke-width:0.8;"/>
      </defs>
      <g>
       <use style="stroke:#000000;stroke-width:0.8;" x="76.5" xlink:href="#mcd54c47bb5" y="409.29"/>
      </g>
     </g>
     <g id="text_5">
      <!-- 0 -->
      <g transform="translate(63.1375 413.089219)scale(0.1 -0.1)">
       <use xlink:href="#DejaVuSans-30"/>
      </g>
     </g>
    </g>
    <g id="ytick_2">
     <g id="line2d_6">
      <g>
       <use style="stroke:#000000;stroke-width:0.8;" x="76.5" xlink:href="#mcd54c47bb5" y="345.87"/>
      </g>
     </g>
     <g id="text_6">
      <!-- 20 -->
      <g transform="translate(56.775 349.669219)scale(0.1 -0.1)">
       <use xlink:href="#DejaVuSans-32"/>
       <use x="63.623047" xlink:href="#DejaVuSans-30"/>
      </g>
     </g>
    </g>
    <g id="ytick_3">
     <g id="line2d_7">
      <g>
       <use style="stroke:#000000;stroke-width:0.8;" x="76.5" xlink:href="#mcd54c47bb5" y="282.45"/>
      </g>
     </g>
     <g id="text_7">
      <!-- 40 -->
      <defs>
       <path d="M 37.796875 64.3125 
L 12.890625 25.390625 
L 37.796875 25.390625 
z
M 35.203125 72.90625 
L 47.609375 72.90625 
L 47.609375 25.390625 
L 58.015625 25.390625 
L 58.015625 17.1875 
L 47.609375 17.1875 
L 47.609375 0 
L 37.796875 0 
L 37.796875 17.1875 
L 4.890625 17.1875 
L 4.890625 26.703125 
z
" id="DejaVuSans-34"/>
      </defs>
      <g transform="translate(56.775 286.249219)scale(0.1 -0.1)">
       <use xlink:href="#DejaVuSans-34"/>
       <use x="63.623047" xlink:href="#DejaVuSans-30"/>
      </g>
     </g>
    </g>
    <g id="ytick_4">
     <g id="line2d_8">
      <g>
       <use style="stroke:#000000;stroke-width:0.8;" x="76.5" xlink:href="#mcd54c47bb5" y="219.03"/>
      </g>
     </g>
     <g id="text_8">
      <!-- 60 -->
      <defs>
       <path d="M 33.015625 40.375 
Q 26.375 40.375 22.484375 35.828125 
Q 18.609375 31.296875 18.609375 23.390625 
Q 18.609375 15.53125 22.484375 10.953125 
Q 26.375 6.390625 33.015625 6.390625 
Q 39.65625 6.390625 43.53125 10.953125 
Q 47.40625 15.53125 47.40625 23.390625 
Q 47.40625 31.296875 43.53125 35.828125 
Q 39.65625 40.375 33.015625 40.375 
z
M 52.59375 71.296875 
L 52.59375 62.3125 
Q 48.875 64.0625 45.09375 64.984375 
Q 41.3125 65.921875 37.59375 65.921875 
Q 27.828125 65.921875 22.671875 59.328125 
Q 17.53125 52.734375 16.796875 39.40625 
Q 19.671875 43.65625 24.015625 45.921875 
Q 28.375 48.1875 33.59375 48.1875 
Q 44.578125 48.1875 50.953125 41.515625 
Q 57.328125 34.859375 57.328125 23.390625 
Q 57.328125 12.15625 50.6875 5.359375 
Q 44.046875 -1.421875 33.015625 -1.421875 
Q 20.359375 -1.421875 13.671875 8.265625 
Q 6.984375 17.96875 6.984375 36.375 
Q 6.984375 53.65625 15.1875 63.9375 
Q 23.390625 74.21875 37.203125 74.21875 
Q 40.921875 74.21875 44.703125 73.484375 
Q 48.484375 72.75 52.59375 71.296875 
z
" id="DejaVuSans-36"/>
      </defs>
      <g transform="translate(56.775 222.829219)scale(0.1 -0.1)">
       <use xlink:href="#DejaVuSans-36"/>
       <use x="63.623047" xlink:href="#DejaVuSans-30"/>
      </g>
     </g>
    </g>
    <g id="ytick_5">
     <g id="line2d_9">
      <g>
       <use style="stroke:#000000;stroke-width:0.8;" x="76.5" xlink:href="#mcd54c47bb5" y="155.61"/>
      </g>
     </g>
     <g id="text_9">
      <!-- 80 -->
      <defs>
       <path d="M 31.78125 34.625 
Q 24.75 34.625 20.71875 30.859375 
Q 16.703125 27.09375 16.703125 20.515625 
Q 16.703125 13.921875 20.71875 10.15625 
Q 24.75 6.390625 31.78125 6.390625 
Q 38.8125 6.390625 42.859375 10.171875 
Q 46.921875 13.96875 46.921875 20.515625 
Q 46.921875 27.09375 42.890625 30.859375 
Q 38.875 34.625 31.78125 34.625 
z
M 21.921875 38.8125 
Q 15.578125 40.375 12.03125 44.71875 
Q 8.5 49.078125 8.5 55.328125 
Q 8.5 64.0625 14.71875 69.140625 
Q 20.953125 74.21875 31.78125 74.21875 
Q 42.671875 74.21875 48.875 69.140625 
Q 55.078125 64.0625 55.078125 55.328125 
Q 55.078125 49.078125 51.53125 44.71875 
Q 48 40.375 41.703125 38.8125 
Q 48.828125 37.15625 52.796875 32.3125 
Q 56.78125 27.484375 56.78125 20.515625 
Q 56.78125 9.90625 50.3125 4.234375 
Q 43.84375 -1.421875 31.78125 -1.421875 
Q 19.734375 -1.421875 13.25 4.234375 
Q 6.78125 9.90625 6.78125 20.515625 
Q 6.78125 27.484375 10.78125 32.3125 
Q 14.796875 37.15625 21.921875 38.8125 
z
M 18.3125 54.390625 
Q 18.3125 48.734375 21.84375 45.5625 
Q 25.390625 42.390625 31.78125 42.390625 
Q 38.140625 42.390625 41.71875 45.5625 
Q 45.3125 48.734375 45.3125 54.390625 
Q 45.3125 60.0625 41.71875 63.234375 
Q 38.140625 66.40625 31.78125 66.40625 
Q 25.390625 66.40625 21.84375 63.234375 
Q 18.3125 60.0625 18.3125 54.390625 
z
" id="DejaVuSans-38"/>
      </defs>
      <g transform="translate(56.775 159.409219)scale(0.1 -0.1)">
       <use xlink:href="#DejaVuSans-38"/>
       <use x="63.623047" xlink:href="#DejaVuSans-30"/>
      </g>
     </g>
    </g>
    <g id="ytick_6">
     <g id="line2d_10">
      <g>
       <use style="stroke:#000000;stroke-width:0.8;" x="76.5" xlink:href="#mcd54c47bb5" y="92.19"/>
      </g>
     </g>
     <g id="text_10">
      <!-- 100 -->
      <g transform="translate(50.4125 95.989219)scale(0.1 -0.1)">
       <use xlink:href="#DejaVuSans-31"/>
       <use x="63.623047" xlink:href="#DejaVuSans-30"/>
       <use x="127.246094" xlink:href="#DejaVuSans-30"/>
      </g>
     </g>
    </g>
   </g>
   <g id="line2d_11">
    <path clip-path="url(#pc89b6df1a8)" d="M 98.059091 87.104787 
L 102.414463 87.209521 
L 106.769835 87.319186 
L 111.125207 87.434009 
L 115.480579 87.55423 
L 119.83595 87.680098 
L 124.191322 87.811874 
L 128.546694 87.949829 
L 132.902066 88.094247 
L 137.257438 88.245426 
L 141.61281 88.403674 
L 145.968182 88.569315 
L 150.323554 88.742686 
L 154.678926 88.924138 
L 159.034298 89.114038 
L 163.389669 89.312769 
L 167.745041 89.520729 
L 172.100413 89.738334 
L 176.455785 89.966018 
L 180.811157 90.20423 
L 185.166529 90.453442 
L 189.521901 90.714142 
L 193.877273 90.986839 
L 198.232645 91.272064 
L 202.588017 91.570366 
L 206.943388 91.882319 
L 211.29876 92.208519 
L 215.654132 92.549584 
L 220.009504 92.906156 
L 224.364876 93.278902 
L 228.720248 93.668514 
L 233.07562 94.07571 
L 237.430992 94.501233 
L 241.786364 94.945853 
L 246.141736 95.410369 
L 250.497107 95.895606 
L 254.852479 96.402416 
L 259.207851 96.931683 
L 263.563223 97.484317 
L 267.918595 98.061257 
L 272.273967 98.663474 
L 276.629339 99.291964 
L 280.984711 99.947757 
L 285.340083 100.631909 
L 289.695455 101.345506 
L 294.050826 102.089662 
L 298.406198 102.865519 
L 302.76157 103.674249 
L 307.116942 104.517046 
L 311.472314 105.395134 
L 315.827686 106.309758 
L 320.183058 107.262189 
L 324.53843 108.253717 
L 328.893802 109.285653 
L 333.249174 110.359325 
L 337.604545 111.476075 
L 341.959917 112.637259 
L 346.315289 113.844241 
L 350.670661 115.098392 
L 355.026033 116.401085 
L 359.381405 117.753692 
L 363.736777 119.157578 
L 368.092149 120.614099 
L 372.447521 122.124596 
L 376.802893 123.690388 
L 381.158264 125.312767 
L 385.513636 126.992995 
L 389.869008 128.732292 
L 394.22438 130.531836 
L 398.579752 132.392748 
L 402.935124 134.316091 
L 407.290496 136.30286 
L 411.645868 138.353974 
L 416.00124 140.470267 
L 420.356612 142.652482 
L 424.711983 144.901258 
L 429.067355 147.217128 
L 433.422727 149.600505 
L 437.778099 152.051674 
L 442.133471 154.570788 
L 446.488843 157.157853 
L 450.844215 159.812726 
L 455.199587 162.535103 
L 459.554959 165.324516 
L 463.910331 168.180323 
L 468.265702 171.101701 
L 472.621074 174.087648 
L 476.976446 177.136968 
L 481.331818 180.248276 
L 485.68719 183.419992 
L 490.042562 186.650339 
L 494.397934 189.937347 
L 498.753306 193.278847 
L 503.108678 196.672478 
L 507.46405 200.115691 
L 511.819421 203.605751 
L 516.174793 207.139747 
L 520.530165 210.714594 
L 524.885537 214.327048 
L 529.240909 217.973713 
" style="fill:none;stroke:#3299ff;stroke-dasharray:5.55,2.4;stroke-dashoffset:0;stroke-width:1.5;"/>
   </g>
   <g id="line2d_12">
    <defs>
     <path d="M -4 4 
L 4 4 
L 4 -4 
L -4 -4 
z
" id="m96dde87e06" style="stroke:#3299ff;stroke-linejoin:miter;stroke-opacity:0.5;stroke-width:1.5;"/>
    </defs>
    <g clip-path="url(#pc89b6df1a8)">
     <use style="fill:#3299ff;fill-opacity:0.5;stroke:#3299ff;stroke-linejoin:miter;stroke-opacity:0.5;stroke-width:1.5;" x="98.059091" xlink:href="#m96dde87e06" y="92.19"/>
     <use style="fill:#3299ff;fill-opacity:0.5;stroke:#3299ff;stroke-linejoin:miter;stroke-opacity:0.5;stroke-width:1.5;" x="118.591558" xlink:href="#m96dde87e06" y="92.19"/>
     <use style="fill:#3299ff;fill-opacity:0.5;stroke:#3299ff;stroke-linejoin:miter;stroke-opacity:0.5;stroke-width:1.5;" x="139.124026" xlink:href="#m96dde87e06" y="92.284776"/>
     <use style="fill:#3299ff;fill-opacity:0.5;stroke:#3299ff;stroke-linejoin:miter;stroke-opacity:0.5;stroke-width:1.5;" x="159.656494" xlink:href="#m96dde87e06" y="92.312896"/>
     <use style="fill:#3299ff;fill-opacity:0.5;stroke:#3299ff;stroke-linejoin:miter;stroke-opacity:0.5;stroke-width:1.5;" x="180.188961" xlink:href="#m96dde87e06" y="92.24884"/>
     <use style="fill:#3299ff;fill-opacity:0.5;stroke:#3299ff;stroke-linejoin:miter;stroke-opacity:0.5;stroke-width:1.5;" x="200.721429" xlink:href="#m96dde87e06" y="92.252765"/>
     <use style="fill:#3299ff;fill-opacity:0.5;stroke:#3299ff;stroke-linejoin:miter;stroke-opacity:0.5;stroke-width:1.5;" x="221.253896" xlink:href="#m96dde87e06" y="92.262117"/>
     <use style="fill:#3299ff;fill-opacity:0.5;stroke:#3299ff;stroke-linejoin:miter;stroke-opacity:0.5;stroke-width:1.5;" x="241.786364" xlink:href="#m96dde87e06" y="92.265797"/>
     <use style="fill:#3299ff;fill-opacity:0.5;stroke:#3299ff;stroke-linejoin:miter;stroke-opacity:0.5;stroke-width:1.5;" x="262.318831" xlink:href="#m96dde87e06" y="92.277878"/>
     <use style="fill:#3299ff;fill-opacity:0.5;stroke:#3299ff;stroke-linejoin:miter;stroke-opacity:0.5;stroke-width:1.5;" x="282.851299" xlink:href="#m96dde87e06" y="92.281233"/>
     <use style="fill:#3299ff;fill-opacity:0.5;stroke:#3299ff;stroke-linejoin:miter;stroke-opacity:0.5;stroke-width:1.5;" x="303.383766" xlink:href="#m96dde87e06" y="92.291888"/>
     <use style="fill:#3299ff;fill-opacity:0.5;stroke:#3299ff;stroke-linejoin:miter;stroke-opacity:0.5;stroke-width:1.5;" x="323.916234" xlink:href="#m96dde87e06" y="105.251975"/>
     <use style="fill:#3299ff;fill-opacity:0.5;stroke:#3299ff;stroke-linejoin:miter;stroke-opacity:0.5;stroke-width:1.5;" x="344.448701" xlink:href="#m96dde87e06" y="108.503143"/>
     <use style="fill:#3299ff;fill-opacity:0.5;stroke:#3299ff;stroke-linejoin:miter;stroke-opacity:0.5;stroke-width:1.5;" x="364.981169" xlink:href="#m96dde87e06" y="140.680197"/>
     <use style="fill:#3299ff;fill-opacity:0.5;stroke:#3299ff;stroke-linejoin:miter;stroke-opacity:0.5;stroke-width:1.5;" x="385.513636" xlink:href="#m96dde87e06" y="145.85559"/>
     <use style="fill:#3299ff;fill-opacity:0.5;stroke:#3299ff;stroke-linejoin:miter;stroke-opacity:0.5;stroke-width:1.5;" x="406.046104" xlink:href="#m96dde87e06" y="153.131344"/>
     <use style="fill:#3299ff;fill-opacity:0.5;stroke:#3299ff;stroke-linejoin:miter;stroke-opacity:0.5;stroke-width:1.5;" x="426.578571" xlink:href="#m96dde87e06" y="143.046692"/>
     <use style="fill:#3299ff;fill-opacity:0.5;stroke:#3299ff;stroke-linejoin:miter;stroke-opacity:0.5;stroke-width:1.5;" x="447.111039" xlink:href="#m96dde87e06" y="141.844059"/>
     <use style="fill:#3299ff;fill-opacity:0.5;stroke:#3299ff;stroke-linejoin:miter;stroke-opacity:0.5;stroke-width:1.5;" x="467.643506" xlink:href="#m96dde87e06" y="173.321383"/>
     <use style="fill:#3299ff;fill-opacity:0.5;stroke:#3299ff;stroke-linejoin:miter;stroke-opacity:0.5;stroke-width:1.5;" x="488.175974" xlink:href="#m96dde87e06" y="189.66797"/>
    </g>
   </g>
   <g id="line2d_13">
    <defs>
     <path d="M -4 4 
L 4 4 
L 4 -4 
L -4 -4 
z
" id="mddde883207" style="stroke:#3299ff;stroke-linejoin:miter;stroke-opacity:0.5;stroke-width:1.5;"/>
    </defs>
    <g clip-path="url(#pc89b6df1a8)">
     <use style="fill-opacity:0;stroke:#3299ff;stroke-linejoin:miter;stroke-opacity:0.5;stroke-width:1.5;" x="98.059091" xlink:href="#mddde883207" y="92.19"/>
     <use style="fill-opacity:0;stroke:#3299ff;stroke-linejoin:miter;stroke-opacity:0.5;stroke-width:1.5;" x="118.591558" xlink:href="#mddde883207" y="92.19"/>
     <use style="fill-opacity:0;stroke:#3299ff;stroke-linejoin:miter;stroke-opacity:0.5;stroke-width:1.5;" x="139.124026" xlink:href="#mddde883207" y="92.284776"/>
     <use style="fill-opacity:0;stroke:#3299ff;stroke-linejoin:miter;stroke-opacity:0.5;stroke-width:1.5;" x="159.656494" xlink:href="#mddde883207" y="92.312896"/>
     <use style="fill-opacity:0;stroke:#3299ff;stroke-linejoin:miter;stroke-opacity:0.5;stroke-width:1.5;" x="180.188961" xlink:href="#mddde883207" y="92.24884"/>
     <use style="fill-opacity:0;stroke:#3299ff;stroke-linejoin:miter;stroke-opacity:0.5;stroke-width:1.5;" x="200.721429" xlink:href="#mddde883207" y="92.252765"/>
     <use style="fill-opacity:0;stroke:#3299ff;stroke-linejoin:miter;stroke-opacity:0.5;stroke-width:1.5;" x="221.253896" xlink:href="#mddde883207" y="92.262117"/>
     <use style="fill-opacity:0;stroke:#3299ff;stroke-linejoin:miter;stroke-opacity:0.5;stroke-width:1.5;" x="241.786364" xlink:href="#mddde883207" y="92.265797"/>
     <use style="fill-opacity:0;stroke:#3299ff;stroke-linejoin:miter;stroke-opacity:0.5;stroke-width:1.5;" x="262.318831" xlink:href="#mddde883207" y="92.277878"/>
     <use style="fill-opacity:0;stroke:#3299ff;stroke-linejoin:miter;stroke-opacity:0.5;stroke-width:1.5;" x="282.851299" xlink:href="#mddde883207" y="92.281233"/>
     <use style="fill-opacity:0;stroke:#3299ff;stroke-linejoin:miter;stroke-opacity:0.5;stroke-width:1.5;" x="303.383766" xlink:href="#mddde883207" y="92.291888"/>
     <use style="fill-opacity:0;stroke:#3299ff;stroke-linejoin:miter;stroke-opacity:0.5;stroke-width:1.5;" x="323.916234" xlink:href="#mddde883207" y="105.251975"/>
     <use style="fill-opacity:0;stroke:#3299ff;stroke-linejoin:miter;stroke-opacity:0.5;stroke-width:1.5;" x="344.448701" xlink:href="#mddde883207" y="108.503143"/>
     <use style="fill-opacity:0;stroke:#3299ff;stroke-linejoin:miter;stroke-opacity:0.5;stroke-width:1.5;" x="364.981169" xlink:href="#mddde883207" y="140.680197"/>
     <use style="fill-opacity:0;stroke:#3299ff;stroke-linejoin:miter;stroke-opacity:0.5;stroke-width:1.5;" x="385.513636" xlink:href="#mddde883207" y="145.85559"/>
     <use style="fill-opacity:0;stroke:#3299ff;stroke-linejoin:miter;stroke-opacity:0.5;stroke-width:1.5;" x="406.046104" xlink:href="#mddde883207" y="153.131344"/>
     <use style="fill-opacity:0;stroke:#3299ff;stroke-linejoin:miter;stroke-opacity:0.5;stroke-width:1.5;" x="426.578571" xlink:href="#mddde883207" y="143.046692"/>
     <use style="fill-opacity:0;stroke:#3299ff;stroke-linejoin:miter;stroke-opacity:0.5;stroke-width:1.5;" x="447.111039" xlink:href="#mddde883207" y="141.844059"/>
     <use style="fill-opacity:0;stroke:#3299ff;stroke-linejoin:miter;stroke-opacity:0.5;stroke-width:1.5;" x="467.643506" xlink:href="#mddde883207" y="173.321383"/>
     <use style="fill-opacity:0;stroke:#3299ff;stroke-linejoin:miter;stroke-opacity:0.5;stroke-width:1.5;" x="488.175974" xlink:href="#mddde883207" y="189.66797"/>
    </g>
   </g>
   <g id="line2d_14">
    <path clip-path="url(#pc89b6df1a8)" d="M 98.059091 146.899048 
L 102.414463 147.054976 
L 106.769835 147.218848 
L 111.125207 147.391058 
L 115.480579 147.572017 
L 119.83595 147.762157 
L 124.191322 147.96193 
L 128.546694 148.171807 
L 132.902066 148.392282 
L 137.257438 148.62387 
L 141.61281 148.867109 
L 145.968182 149.122563 
L 150.323554 149.390818 
L 154.678926 149.672486 
L 159.034298 149.968207 
L 163.389669 150.278646 
L 167.745041 150.604497 
L 172.100413 150.946482 
L 176.455785 151.305353 
L 180.811157 151.681891 
L 185.166529 152.076911 
L 189.521901 152.491255 
L 193.877273 152.925801 
L 198.232645 153.381456 
L 202.588017 153.859164 
L 206.943388 154.359899 
L 211.29876 154.884671 
L 215.654132 155.434523 
L 220.009504 156.010531 
L 224.364876 156.613807 
L 228.720248 157.245495 
L 233.07562 157.906774 
L 237.430992 158.598853 
L 241.786364 159.322975 
L 246.141736 160.080412 
L 250.497107 160.872469 
L 254.852479 161.700474 
L 259.207851 162.565785 
L 263.563223 163.469782 
L 267.918595 164.413867 
L 272.273967 165.399461 
L 276.629339 166.428 
L 280.984711 167.500932 
L 285.340083 168.619711 
L 289.695455 169.785797 
L 294.050826 171.000645 
L 298.406198 172.265706 
L 302.76157 173.582415 
L 307.116942 174.952189 
L 311.472314 176.376418 
L 315.827686 177.856457 
L 320.183058 179.39362 
L 324.53843 180.989172 
L 328.893802 182.644315 
L 333.249174 184.360186 
L 337.604545 186.137843 
L 341.959917 187.978254 
L 346.315289 189.88229 
L 350.670661 191.850712 
L 355.026033 193.884162 
L 359.381405 195.983149 
L 363.736777 198.148041 
L 368.092149 200.379055 
L 372.447521 202.676243 
L 376.802893 205.039483 
L 381.158264 207.468474 
L 385.513636 209.962717 
L 389.869008 212.521518 
L 394.22438 215.143972 
L 398.579752 217.828959 
L 402.935124 220.575141 
L 407.290496 223.380955 
L 411.645868 226.244614 
L 416.00124 229.1641 
L 420.356612 232.13717 
L 424.711983 235.161358 
L 429.067355 238.233977 
L 433.422727 241.352124 
L 437.778099 244.512692 
L 442.133471 247.712377 
L 446.488843 250.947691 
L 450.844215 254.214972 
L 455.199587 257.510406 
L 459.554959 260.830035 
L 463.910331 264.169782 
L 468.265702 267.525468 
L 472.621074 270.892833 
L 476.976446 274.267556 
L 481.331818 277.645278 
L 485.68719 281.021625 
L 490.042562 284.39223 
L 494.397934 287.752755 
L 498.753306 291.098915 
L 503.108678 294.426499 
L 507.46405 297.731388 
L 511.819421 301.009579 
L 516.174793 304.257202 
L 520.530165 307.470537 
L 524.885537 310.646031 
L 529.240909 313.780308 
" style="fill:none;stroke:#3299ff;stroke-linecap:square;stroke-width:1.5;"/>
   </g>
   <g id="line2d_15">
    <defs>
     <path d="M 0 4 
C 1.060812 4 2.078319 3.578535 2.828427 2.828427 
C 3.578535 2.078319 4 1.060812 4 0 
C 4 -1.060812 3.578535 -2.078319 2.828427 -2.828427 
C 2.078319 -3.578535 1.060812 -4 0 -4 
C -1.060812 -4 -2.078319 -3.578535 -2.828427 -2.828427 
C -3.578535 -2.078319 -4 -1.060812 -4 0 
C -4 1.060812 -3.578535 2.078319 -2.828427 2.828427 
C -2.078319 3.578535 -1.060812 4 0 4 
z
" id="m56787cac7a" style="stroke:#3299ff;stroke-opacity:0.5;stroke-width:1.5;"/>
    </defs>
    <g clip-path="url(#pc89b6df1a8)">
     <use style="fill:#3299ff;fill-opacity:0.5;stroke:#3299ff;stroke-opacity:0.5;stroke-width:1.5;" x="98.059091" xlink:href="#m56787cac7a" y="152.967789"/>
     <use style="fill:#3299ff;fill-opacity:0.5;stroke:#3299ff;stroke-opacity:0.5;stroke-width:1.5;" x="118.591558" xlink:href="#m56787cac7a" y="156.189454"/>
     <use style="fill:#3299ff;fill-opacity:0.5;stroke:#3299ff;stroke-opacity:0.5;stroke-width:1.5;" x="139.124026" xlink:href="#m56787cac7a" y="151.505337"/>
     <use style="fill:#3299ff;fill-opacity:0.5;stroke:#3299ff;stroke-opacity:0.5;stroke-width:1.5;" x="159.656494" xlink:href="#m56787cac7a" y="147.574799"/>
     <use style="fill:#3299ff;fill-opacity:0.5;stroke:#3299ff;stroke-opacity:0.5;stroke-width:1.5;" x="180.188961" xlink:href="#m56787cac7a" y="157.150139"/>
     <use style="fill:#3299ff;fill-opacity:0.5;stroke:#3299ff;stroke-opacity:0.5;stroke-width:1.5;" x="200.721429" xlink:href="#m56787cac7a" y="154.663365"/>
     <use style="fill:#3299ff;fill-opacity:0.5;stroke:#3299ff;stroke-opacity:0.5;stroke-width:1.5;" x="221.253896" xlink:href="#m56787cac7a" y="158.156294"/>
     <use style="fill:#3299ff;fill-opacity:0.5;stroke:#3299ff;stroke-opacity:0.5;stroke-width:1.5;" x="241.786364" xlink:href="#m56787cac7a" y="159.658398"/>
     <use style="fill:#3299ff;fill-opacity:0.5;stroke:#3299ff;stroke-opacity:0.5;stroke-width:1.5;" x="262.318831" xlink:href="#m56787cac7a" y="160.75015"/>
     <use style="fill:#3299ff;fill-opacity:0.5;stroke:#3299ff;stroke-opacity:0.5;stroke-width:1.5;" x="282.851299" xlink:href="#m56787cac7a" y="160.230001"/>
     <use style="fill:#3299ff;fill-opacity:0.5;stroke:#3299ff;stroke-opacity:0.5;stroke-width:1.5;" x="303.383766" xlink:href="#m56787cac7a" y="159.656051"/>
     <use style="fill:#3299ff;fill-opacity:0.5;stroke:#3299ff;stroke-opacity:0.5;stroke-width:1.5;" x="323.916234" xlink:href="#m56787cac7a" y="164.849529"/>
     <use style="fill:#3299ff;fill-opacity:0.5;stroke:#3299ff;stroke-opacity:0.5;stroke-width:1.5;" x="344.448701" xlink:href="#m56787cac7a" y="183.754888"/>
     <use style="fill:#3299ff;fill-opacity:0.5;stroke:#3299ff;stroke-opacity:0.5;stroke-width:1.5;" x="364.981169" xlink:href="#m56787cac7a" y="204.58752"/>
     <use style="fill:#3299ff;fill-opacity:0.5;stroke:#3299ff;stroke-opacity:0.5;stroke-width:1.5;" x="385.513636" xlink:href="#m56787cac7a" y="225.480251"/>
     <use style="fill:#3299ff;fill-opacity:0.5;stroke:#3299ff;stroke-opacity:0.5;stroke-width:1.5;" x="406.046104" xlink:href="#m56787cac7a" y="230.933124"/>
     <use style="fill:#3299ff;fill-opacity:0.5;stroke:#3299ff;stroke-opacity:0.5;stroke-width:1.5;" x="426.578571" xlink:href="#m56787cac7a" y="251.202428"/>
     <use style="fill:#3299ff;fill-opacity:0.5;stroke:#3299ff;stroke-opacity:0.5;stroke-width:1.5;" x="447.111039" xlink:href="#m56787cac7a" y="256.860605"/>
     <use style="fill:#3299ff;fill-opacity:0.5;stroke:#3299ff;stroke-opacity:0.5;stroke-width:1.5;" x="467.643506" xlink:href="#m56787cac7a" y="262.381412"/>
     <use style="fill:#3299ff;fill-opacity:0.5;stroke:#3299ff;stroke-opacity:0.5;stroke-width:1.5;" x="488.175974" xlink:href="#m56787cac7a" y="264.409454"/>
    </g>
   </g>
   <g id="line2d_16">
    <defs>
     <path d="M 0 4 
C 1.060812 4 2.078319 3.578535 2.828427 2.828427 
C 3.578535 2.078319 4 1.060812 4 0 
C 4 -1.060812 3.578535 -2.078319 2.828427 -2.828427 
C 2.078319 -3.578535 1.060812 -4 0 -4 
C -1.060812 -4 -2.078319 -3.578535 -2.828427 -2.828427 
C -3.578535 -2.078319 -4 -1.060812 -4 0 
C -4 1.060812 -3.578535 2.078319 -2.828427 2.828427 
C -2.078319 3.578535 -1.060812 4 0 4 
z
" id="m79667965f9" style="stroke:#3299ff;stroke-width:1.5;"/>
    </defs>
    <g clip-path="url(#pc89b6df1a8)">
     <use style="fill-opacity:0;stroke:#3299ff;stroke-width:1.5;" x="98.059091" xlink:href="#m79667965f9" y="152.967789"/>
     <use style="fill-opacity:0;stroke:#3299ff;stroke-width:1.5;" x="118.591558" xlink:href="#m79667965f9" y="156.189454"/>
     <use style="fill-opacity:0;stroke:#3299ff;stroke-width:1.5;" x="139.124026" xlink:href="#m79667965f9" y="151.505337"/>
     <use style="fill-opacity:0;stroke:#3299ff;stroke-width:1.5;" x="159.656494" xlink:href="#m79667965f9" y="147.574799"/>
     <use style="fill-opacity:0;stroke:#3299ff;stroke-width:1.5;" x="180.188961" xlink:href="#m79667965f9" y="157.150139"/>
     <use style="fill-opacity:0;stroke:#3299ff;stroke-width:1.5;" x="200.721429" xlink:href="#m79667965f9" y="154.663365"/>
     <use style="fill-opacity:0;stroke:#3299ff;stroke-width:1.5;" x="221.253896" xlink:href="#m79667965f9" y="158.156294"/>
     <use style="fill-opacity:0;stroke:#3299ff;stroke-width:1.5;" x="241.786364" xlink:href="#m79667965f9" y="159.658398"/>
     <use style="fill-opacity:0;stroke:#3299ff;stroke-width:1.5;" x="262.318831" xlink:href="#m79667965f9" y="160.75015"/>
     <use style="fill-opacity:0;stroke:#3299ff;stroke-width:1.5;" x="282.851299" xlink:href="#m79667965f9" y="160.230001"/>
     <use style="fill-opacity:0;stroke:#3299ff;stroke-width:1.5;" x="303.383766" xlink:href="#m79667965f9" y="159.656051"/>
     <use style="fill-opacity:0;stroke:#3299ff;stroke-width:1.5;" x="323.916234" xlink:href="#m79667965f9" y="164.849529"/>
     <use style="fill-opacity:0;stroke:#3299ff;stroke-width:1.5;" x="344.448701" xlink:href="#m79667965f9" y="183.754888"/>
     <use style="fill-opacity:0;stroke:#3299ff;stroke-width:1.5;" x="364.981169" xlink:href="#m79667965f9" y="204.58752"/>
     <use style="fill-opacity:0;stroke:#3299ff;stroke-width:1.5;" x="385.513636" xlink:href="#m79667965f9" y="225.480251"/>
     <use style="fill-opacity:0;stroke:#3299ff;stroke-width:1.5;" x="406.046104" xlink:href="#m79667965f9" y="230.933124"/>
     <use style="fill-opacity:0;stroke:#3299ff;stroke-width:1.5;" x="426.578571" xlink:href="#m79667965f9" y="251.202428"/>
     <use style="fill-opacity:0;stroke:#3299ff;stroke-width:1.5;" x="447.111039" xlink:href="#m79667965f9" y="256.860605"/>
     <use style="fill-opacity:0;stroke:#3299ff;stroke-width:1.5;" x="467.643506" xlink:href="#m79667965f9" y="262.381412"/>
     <use style="fill-opacity:0;stroke:#3299ff;stroke-width:1.5;" x="488.175974" xlink:href="#m79667965f9" y="264.409454"/>
    </g>
   </g>
   <g id="patch_3">
    <path d="M 76.5 441 
L 76.5 60.48 
" style="fill:none;stroke:#000000;stroke-linecap:square;stroke-linejoin:miter;stroke-width:0.8;"/>
   </g>
   <g id="patch_4">
    <path d="M 550.8 441 
L 550.8 60.48 
" style="fill:none;stroke:#000000;stroke-linecap:square;stroke-linejoin:miter;stroke-width:0.8;"/>
   </g>
   <g id="patch_5">
    <path d="M 76.5 441 
L 550.8 441 
" style="fill:none;stroke:#000000;stroke-linecap:square;stroke-linejoin:miter;stroke-width:0.8;"/>
   </g>
   <g id="patch_6">
    <path d="M 76.5 60.48 
L 550.8 60.48 
" style="fill:none;stroke:#000000;stroke-linecap:square;stroke-linejoin:miter;stroke-width:0.8;"/>
   </g>
  </g>
 </g>
 <defs>
  <clipPath id="pc89b6df1a8">
   <rect height="380.52" width="474.3" x="76.5" y="60.48"/>
  </clipPath>
 </defs>
</svg>
